/* XPM */
static char *db5310364207483984ad944cc206dadd5sIz6fW60kBZgweP[] = {
/* columns rows colors chars-per-pixel */
"32 32 19 1 ",
"  c None",
". c black",
"X c #2D2D2D",
"o c #7F0000",
"O c #430068",
"+ c gray25",
"@ c #606060",
"# c gray48",
"$ c #AF0000",
"% c #CCAA00",
"& c #FFD800",
"* c #560082",
"= c #660099",
"- c #7A00B7",
"; c #A500FF",
": c #808080",
"> c #A0A0A0",
", c #C1C1C1",
"< c #FFE5E5",
/* pixels */
"            ..O**O..            ",
"          ..*==--==*..          ",
"         .*==------==*.         ",
"         .=----------=.         ",
"        .=------------=.        ",
"        .=-==**OO**==-=.        ",
"        .-=<<<<<<<<<<=-.        ",
"        .O<<<<<<<<<<<<O.        ",
"       ..*<<<<<<<<<<<<*.        ",
"      .=.*<<<<<<<<<<<<*.        ",
"     .--*.*<<<<<<<<<<*.         ",
"     .-=..-==========-.         ",
"     ...-.=----------=.         ",
"       .-*.==------==.          ",
"     .....X.*==--==*.X.....     ",
"     .&#++X=........=X++#&.     ",
"    .#&++X==-=*<<*=-==X++&#.    ",
"    .<+%XX=---=OO=---=XX%+<.    ",
"    .<<+%X=----------=X%+<<.    ",
"   .*<<<..==--------==..<*=*.   ",
"   .-=*.  .==--==--==.  O--=.   ",
"   .;--.   o*==**==*o  .<---.   ",
"    .-<.  .=oo$$$$oo=. .<<<-.   ",
"     ..   .=---==---=.  .<<.    ",
"         .=----------.   ..     ",
"         .*=--=..=--=.          ",
"        .:::=-. .*-=:.          ",
"        .,,>:*. .**::.          ",
"       .>>>>>:.  .:::.          ",
"       .:::::>.  .:::.          ",
"        .@@@::.  .:::.          ",
"         ......  .....          "
};
