/* XPM */
static char *c0ada758dcc6493989cd1af96255967fuknJgv4QYwF5WDuN[] = {
/* columns rows colors chars-per-pixel */
"32 32 38 1 ",
"  c #C5AD7F",
". c #C6AE81",
"X c #C9AF81",
"o c #C7B182",
"O c #CCB484",
"+ c #CFB886",
"@ c #CEB789",
"# c #CFB98B",
"$ c #D0B785",
"% c #D3BA86",
"& c #D8BF87",
"* c #D4BD8A",
"= c #D8BF8A",
"- c #D4BF91",
"; c #DAC187",
": c #D6C08D",
"> c #DBC38C",
", c #DFC88D",
"< c #D7C192",
"1 c #DBC493",
"2 c #DEC994",
"3 c #D7C398",
"4 c #DBC698",
"5 c #DECA9A",
"6 c #E0C78C",
"7 c #E2CB8E",
"8 c #E2CC94",
"9 c #E2CD9B",
"0 c #E6D096",
"q c #E5D19D",
"w c #E8D29F",
"e c #DFCEA1",
"r c #E1CEA1",
"t c #E6D3A3",
"y c #E8D5A4",
"u c #E7D6A9",
"i c #E9D7AA",
"p c #E9D9AC",
/* pixels */
"8>@*99#@2y9=+>778qt,OO;:%qq>++=8",
";+*99*-9yy9*,:*=&,7,,,%#eq,::8tq",
"%2q9*-992--11282:,8t2>:5t1;O<tt2",
"2091898*+ O29q98,,595,>9:oo<9q22",
"2q9991*X.o3rw87%*186===%o+144152",
"18w9*XO@<et07%O%,;%X$*;,24--2tt1",
"98y6%*4rttt8O =,:O =6882*@*49992",
"299=*9r9887:*28%O$6yt9>%%*269115",
";86=295=%=25tt*O%>0t2$*>3286*@*@",
"97==81+  +<9t8:>7><,@29w87>%OOX$",
"q:%>,%%=159t8777>%;>2qq089;OOOX4",
"2++2866-311%%889q8777878wy8>>,9t",
"OX:0>%@11:O%9tpt,>8q7;%-9qw878t3",
"+>885999:+:tpp9@:tq2%O%*227>*r*X",
"67wppt2@%>ypu5-3iy2%%,9998::91+*",
"80py5@O*89tq3*-r07>,8w9*OO%,*;,7",
"7yp:XO2ry96--2987,295<o.%>>O#977",
"wy1.%9ur8-444466:>85+O:721-*68*=",
"08%=9y994r981==2121$=2qttr888*1t",
"%%68922r94-***9tr1=8qtuuq8>,=5q2",
"o-58&%89--**>9y9**80000,=O$%29*O",
"+50:$=>1*-19w08**qyyq7;**1882%oo",
"2q8%&&---r908;=>8py8788qqq51*%=1",
":,%:=*1ru880%%;698%O>qtt0599,1*O",
">%%>%:8q139866%%,%Oqppt91188%OO*",
"*17%%5ttrr8=%%+@==qppt1++2t>++:>",
"10>O2uut96$X%*499,8889*%2q9>%>,:",
"t,O>ttt8*X$;8wyt9=::9t2*:::=%225",
"9%=qu0: X480w996O%:9y8%*31=+5ttt",
">%:t5  ,rtw996% =7ww89591=+2yyy0",
"O%7,+%9tt9ty8*;7700wiy2+X%8ypw8>",
">7>%1qe*@9yw;$7070yy8%X+%*tw0;OO"
};
