/* XPM */
static char *_0306139d30448ef82ceb5b01855da1eG6IaILS4DfWpT3Z9[] = {
/* columns rows colors chars-per-pixel */
"32 32 28 1 ",
"  c None",
". c #3A3538",
"X c #4F2100",
"o c #703000",
"O c #4F4700",
"+ c #7F400A",
"@ c #706600",
"# c #7F790A",
"$ c #524031",
"% c #615338",
"& c #534F54",
"* c #756444",
"= c #6D6970",
"- c #915214",
"; c #A1621E",
": c #806E49",
"> c #8B784E",
", c #937D50",
"< c #918E14",
"1 c #A1A11E",
"2 c #C9853C",
"3 c #C9C93C",
"4 c #9C8454",
"5 c #AC945E",
"6 c #C2A86B",
"7 c #CBB075",
"8 c #86838C",
"9 c #D4B980",
/* pixels */
"                                ",
"       &.    &.    &.    &.     ",
"       8=    8=    8=    8=     ",
"  ****%oX*%**oX***%@O*%**@O***$ ",
"  *444*+X4*44+X444>#O4*44#O444$ ",
"  *:%*+;+X%:+;+X::#1#O%:#1#O::$ ",
"  *4$o;2;oXo;2;oX@131@O@131@O4$ ",
"  *4$o2&.+Xo2&.+X@3&.#O@3&.#O4$ ",
"  *5$o28=+Xo28=+X@38=#O@38=#O5$ ",
"  **$o;oXoXo;oXoX@1@O@O@1@O@O*$ ",
"  *4$X-+XoXX-+XoXO<#O@OO<#O@O4$ ",
"  *4$X+;+XXX+;+XXO#1#OOO#1#OO4$ ",
"  *5$o;2;oXo;2;oX@131@O@131@O5$ ",
"  **$o2&.+Xo2&.+X@3&.#O@3&.#O*$ ",
"  *4$o28=+Xo28=+X@38=#O@38=#O4$ ",
"  *5$o;oXoXo;oXoX@1@O@O@1@O@O5$ ",
"  *7$X-+XoXX-+XoXO<#O@OO<#O@O5$ ",
"  *999*997*977*997>977*997*997$ ",
"  %44,$44,$44,$44,$44,$44,$44,$ ",
"  %999777777777777767776767666$ ",
"  %4*44444444444444444444,4,*,$ ",
"  %4,,,,*,,,*,,,*>>,*>>>*>,>,>$ ",
"  %,*,,>,>,>>,>>>>>>>>>>>>>>*>$ ",
"  $%%%$%%%$%%%$%%%$%%%$%%%$%%%$ ",
"  %>>>%>>>%>>>%>>>%>>>%>>>%>>>$ ",
"  %44,%44,%444%44,%444%44,%44,$ ",
"  %999777777777777767776767666$ ",
"  %4*44444444444444444444,4,*,$ ",
"  %4,,,,*,,,*,,,*>>,*>>>*>,>,>$ ",
"  %,*,,>,>,>>,>>>>>>>>>>>>>>*>$ ",
"  %%%%$%%%$%%%$%%%$%%%$%%%$%%%$ ",
"                                "
};
