/* XPM */
static char *_5385128fe314101da599bc5742c38ccHD72OKcSIzDT2Ifs[] = {
/* columns rows colors chars-per-pixel */
"32 32 7 1 ",
"  c #2F495E",
". c #3E617C",
"X c #405B74",
"o c #476881",
"O c #4D7695",
"+ c #5484AA",
"@ c #56A4A1",
/* pixels */
"@@@@@@@+ @@@@@@@@@@@@@@+ @@@@@@@",
"XXXXXXXX XXXXXXXXXXXXXXX XXXXXXX",
"                                ",
" ooooooooooooo.. ooooooooooooo..",
" +OOOOOOOOOOOOOO +OOOOOOOOOOOOOO",
" @+++++++++++++O @+++++++++++++O",
" @+++++++++++++O @+++++++++++++O",
" @+++++++++++++O @+++++++++++++O",
" @@@@@@@@@@@@@@+ @@@@@@@@@@@@@@+",
" XXXXXXXXXXXXXXX XXXXXXXXXXXXXXX",
"                                ",
"oooooo.. ooooooooooooo.. ooooooo",
"OOOOOOOO +OOOOOOOOOOOOOO +OOOOOO",
"+++++++O @+++++++++++++O @++++++",
"+++++++O @+++++++++++++O @++++++",
"+++++++O @+++++++++++++O @++++++",
"@@@@@@@+ @@@@@@@@@@@@@@+ @@@@@@@",
"XXXXXXXX XXXXXXXXXXXXXXX XXXXXXX",
"                                ",
" ooooooooooooo.. ooooooooooooo..",
" +OOOOOOOOOOOOOO +OOOOOOOOOOOOOO",
" @+++++++++++++O @+++++++++++++O",
" @+++++++++++++O @+++++++++++++O",
" @+++++++++++++O @+++++++++++++O",
" @@@@@@@@@@@@@@+ @@@@@@@@@@@@@@+",
" XXXXXXXXXXXXXXX XXXXXXXXXXXXXXX",
"                                ",
"oooooo.. ooooooooooooo.. ooooooo",
"OOOOOOOO +OOOOOOOOOOOOOO +OOOOOO",
"+++++++O @+++++++++++++O @++++++",
"+++++++O @+++++++++++++O @++++++",
"+++++++O @+++++++++++++O @++++++"
};
